<?xml version="1.0" encoding="UTF-8"?>
<svg id="Capa_2" data-name="Capa 2" xmlns="http://www.w3.org/2000/svg" xmlns:xlink="http://www.w3.org/1999/xlink" viewBox="0 0 151.2 94.5">
  <defs>
    <style>
      .cls-1 {
        isolation: isolate;
        opacity: .5;
      }

      .cls-1, .cls-2, .cls-3 {
        fill: none;
      }

      .cls-3 {
        clip-path: url(#clippath);
      }

      .cls-4 {
        fill: #142e3a;
        fill-rule: evenodd;
      }
    </style>
    <clipPath id="clippath">
      <rect class="cls-2" width="151.2" height="94.5"/>
    </clipPath>
  </defs>
  <g id="Capa_1-2" data-name="Capa 1">
    <g class="cls-1">
      <g class="cls-3">
        <path class="cls-4" d="m36.09,68.94c0,5.56-4.52,10.08-10.08,10.08s-10.08-4.52-10.08-10.08v-4.31H3.29c-1.58,0-2.86-1.27-2.89-2.84C.07,34.69,21.85,12.71,48.73,12.71c1.59,0,2.89,1.29,2.89,2.89v15.88c0,1.59-1.29,2.89-2.89,2.89h-7.19c-2.37,0-4.31,1.93-4.31,4.31s1.93,4.31,4.31,4.31h7.19c1.59,0,2.89,1.29,2.89,2.89v15.88c0,1.59-1.29,2.89-2.89,2.89h-12.65v4.31h0Zm-14.38,0v-7.19c0-1.59-1.29-2.89-2.89-2.89H6.22c1.09-21.5,18.22-38.85,39.62-40.29v10.02h-4.31c-5.56,0-10.08,4.52-10.08,10.08s4.52,10.08,10.08,10.08h4.31v10.11h-12.65c-1.59,0-2.89,1.29-2.89,2.89v7.19c0,2.37-1.93,4.31-4.31,4.31-2.37,0-4.31-1.93-4.31-4.31ZM67.79,15.59V2.9c0-1.59,1.29-2.89,2.89-2.89s2.89,1.29,2.89,2.89v12.7c0,1.59-1.29,2.89-2.89,2.89s-2.89-1.29-2.89-2.89Zm38.59,8.79l6.35-11c.8-1.38,2.56-1.85,3.94-1.06,1.38.8,1.85,2.56,1.06,3.95l-6.35,11c-.81,1.4-2.59,1.84-3.94,1.06-1.38-.8-1.86-2.57-1.06-3.95Zm42.91,25.56l-11,6.35c-1.36.78-3.14.34-3.95-1.06-.8-1.38-.32-3.14,1.06-3.94l11-6.35c1.38-.8,3.15-.33,3.94,1.05.8,1.38.33,3.14-1.06,3.95Zm-40.36,74.37c-1.03,0-2.06.05-3.07.15,8.45-8.93,13.17-20.7,13.17-33.17,0-26.65-21.68-48.34-48.33-48.34-1.6,0-2.89,1.29-2.89,2.89v12.99h-4.31c-5.56,0-10.08,4.52-10.08,10.08s4.52,10.08,10.08,10.08h4.31v10.11h-12.64c-1.6,0-2.89,1.29-2.89,2.89v7.19c0,2.37-1.93,4.31-4.31,4.31s-4.31-1.93-4.31-4.31v-7.19c0-1.59-1.29-2.89-2.89-2.89h-15.53c-1.61,0-2.91,1.32-2.89,2.93.22,14.55,6.9,28.1,18.33,37.15,2.57,2.03,4.45,4.46,5.64,7.23h-1.98c-3.36,0-6.11,2.74-6.11,6.1v11.15c0,3.36,2.74,6.1,6.11,6.1h3.49v12.38c0,4.21,3.42,7.63,7.63,7.63h29.14c6.05,6.57,14.72,10.7,24.33,10.7,18.25,0,33.09-14.84,33.09-33.09,0-18.25-14.85-33.09-33.09-33.09Zm-11.82.35c-1.33,1.06-2.54,2.23-3.61,3.48-3.9,2.06-7.35,4.89-10.13,8.27h-9.8v-11.27h4.31c5.56,0,10.08-4.52,10.08-10.08s-4.52-10.08-10.08-10.08h-4.31v-10.11h13c1.59,0,2.89-1.29,2.89-2.89v-7.19c0-2.37,1.93-4.31,4.31-4.31s4.31,1.93,4.31,4.31v7.19c0,1.59,1.29,2.89,2.89,2.89h12.15c-.98,11.69-6.7,22.42-16,29.79Zm-33.62-51.44c-2.38,0-4.31-1.93-4.31-4.31s1.93-4.31,4.31-4.31h7.19c1.59,0,2.89-1.29,2.89-2.89v-12.9c21.41,1.44,38.53,18.79,39.62,40.28h-9.35v-4.31c0-5.56-4.52-10.08-10.08-10.08s-10.08,4.52-10.08,10.08v4.31h-10.12v-13c0-1.59-1.29-2.89-2.89-2.89h-7.19Zm-19.23,51.44c-9.29-7.36-15.02-18.1-16-29.79h9.61v4.31c0,5.56,4.52,10.08,10.08,10.08s10.08-4.52,10.08-10.08v-4.31h9.76v13c0,1.59,1.29,2.89,2.89,2.89h7.19c2.37,0,4.31,1.93,4.31,4.31s-1.93,4.31-4.31,4.31h-7.19c-1.6,0-2.89,1.29-2.89,2.89v14.16h-15.34c-1.44-4.58-4.24-8.61-8.2-11.75Zm-.26,29v-11.15c0-.17.15-.33.33-.33h35.23c-1.87,3.6-3.11,7.59-3.55,11.81h-31.68c-.18,0-.33-.15-.33-.33Zm11.45,20.34c-1.01,0-1.86-.85-1.86-1.86v-12.38h22.34c.37,5.16,1.92,10,4.4,14.24h-24.88Zm53.47,10.7c15.06,0,27.32-12.25,27.32-27.31s-12.26-27.32-27.32-27.32-27.31,12.25-27.31,27.32c0,15.06,12.25,27.31,27.31,27.31Zm16.57-41.16c1.13,1.13,1.13,2.95,0,4.08l-23.23,23.23c-1.22,1.22-3.22,1.11-4.29-.24l-9.29-11.62c-1-1.24-.8-3.06.45-4.06,1.24-1,3.06-.79,4.06.45l7.28,9.1,20.95-20.95c1.13-1.13,2.95-1.13,4.08,0Z"/>
      </g>
    </g>
  </g>
</svg>