<?xml version="1.0" encoding="UTF-8"?>
<svg id="Capa_2" data-name="Capa 2" xmlns="http://www.w3.org/2000/svg" xmlns:xlink="http://www.w3.org/1999/xlink" viewBox="0 0 146.4 92.18">
  <defs>
    <style>
      .cls-1 {
        isolation: isolate;
        opacity: .5;
      }

      .cls-1, .cls-2, .cls-3 {
        fill: none;
      }

      .cls-3 {
        clip-path: url(#clippath);
      }

      .cls-4 {
        fill: #142e3a;
        fill-rule: evenodd;
      }
    </style>
    <clipPath id="clippath">
      <rect class="cls-2" width="146.4" height="92.18"/>
    </clipPath>
  </defs>
  <g id="Capa_1-2" data-name="Capa 1">
    <g class="cls-1">
      <g class="cls-3">
        <path class="cls-4" d="m34.95-25.55c0,5.38-4.38,9.76-9.76,9.76s-9.76-4.38-9.76-9.76v-4.17H3.18c-1.53,0-2.77-1.23-2.79-2.75-.32-26.25,20.77-47.54,46.81-47.54,1.54,0,2.8,1.25,2.8,2.79v15.38c0,1.54-1.25,2.79-2.8,2.79h-6.96c-2.3,0-4.17,1.87-4.17,4.17s1.87,4.17,4.17,4.17h6.96c1.54,0,2.8,1.25,2.8,2.79v15.38c0,1.54-1.25,2.8-2.8,2.8h-12.25v4.17h0Zm-13.93,0v-6.97c0-1.54-1.25-2.79-2.79-2.79H6.03c1.06-20.83,17.64-37.62,38.38-39.02v9.7h-4.17c-5.38,0-9.76,4.38-9.76,9.76s4.38,9.76,9.76,9.76h4.17v9.8h-12.25c-1.54,0-2.8,1.25-2.8,2.79v6.97c0,2.3-1.87,4.17-4.17,4.17-2.3,0-4.17-1.87-4.17-4.17Zm44.63-51.67v-12.3c0-1.54,1.25-2.8,2.8-2.8s2.79,1.25,2.79,2.8v12.3c0,1.54-1.25,2.79-2.79,2.79s-2.8-1.25-2.8-2.79Zm37.37,8.52l6.15-10.65c.77-1.34,2.48-1.79,3.82-1.02,1.33.78,1.79,2.48,1.02,3.82l-6.15,10.65c-.78,1.36-2.51,1.78-3.82,1.03-1.34-.78-1.8-2.49-1.02-3.82Zm41.56,24.75l-10.65,6.15c-1.31.76-3.04.33-3.82-1.03-.77-1.34-.31-3.04,1.03-3.82l10.65-6.15c1.33-.77,3.05-.32,3.82,1.02.77,1.34.32,3.04-1.02,3.82ZM105.49,28.08c-1,0-2,.05-2.98.14,8.18-8.65,12.75-20.04,12.75-32.13,0-25.81-21-46.81-46.81-46.81-1.55,0-2.8,1.25-2.8,2.8v12.59h-4.17c-5.39,0-9.76,4.38-9.76,9.76s4.38,9.76,9.76,9.76h4.17V-6.02h-12.25c-1.55,0-2.79,1.25-2.79,2.79V3.74c0,2.3-1.87,4.17-4.18,4.17s-4.17-1.87-4.17-4.17V-3.23c0-1.54-1.25-2.79-2.8-2.79h-15.04c-1.56,0-2.82,1.28-2.8,2.84.22,14.09,6.68,27.21,17.75,35.98,2.49,1.97,4.31,4.32,5.46,7h-1.92c-3.26,0-5.91,2.65-5.91,5.91v10.8c0,3.26,2.66,5.91,5.91,5.91h3.38v11.99c0,4.07,3.32,7.39,7.39,7.39h28.22c5.86,6.37,14.26,10.37,23.57,10.37,17.67,0,32.05-14.37,32.05-32.04,0-17.67-14.38-32.05-32.05-32.05Zm-11.44.34c-1.29,1.02-2.46,2.16-3.49,3.37-3.78,2-7.12,4.73-9.81,8.01h-9.49v-10.91h4.17c5.38,0,9.76-4.38,9.76-9.76s-4.38-9.76-9.76-9.76h-4.17V-.43h12.59c1.54,0,2.8-1.25,2.8-2.8v-6.96c0-2.3,1.87-4.17,4.17-4.17s4.17,1.87,4.17,4.17V-3.22c0,1.54,1.25,2.8,2.79,2.8h11.77c-.95,11.32-6.49,21.71-15.49,28.85ZM61.48-21.4c-2.3,0-4.18-1.87-4.18-4.17s1.87-4.17,4.18-4.17h6.97c1.54,0,2.79-1.25,2.79-2.8v-12.49c20.73,1.4,37.32,18.19,38.38,39.02h-9.06v-4.17c0-5.38-4.38-9.76-9.76-9.76s-9.76,4.38-9.76,9.76v4.17h-9.8v-12.59c0-1.54-1.25-2.79-2.79-2.79h-6.97Zm-18.62,49.82C33.86,21.29,28.31,10.89,27.36-.43h9.31V3.74c0,5.38,4.38,9.76,9.76,9.76s9.76-4.38,9.76-9.76V-.43h9.45v12.59c0,1.54,1.25,2.8,2.8,2.8h6.96c2.3,0,4.17,1.87,4.17,4.17s-1.87,4.17-4.17,4.17h-6.96c-1.55,0-2.8,1.25-2.8,2.79v13.71h-14.85c-1.39-4.44-4.11-8.34-7.94-11.38Zm-.25,28.09v-10.8c0-.17.15-.32.32-.32h34.12c-1.81,3.49-3.01,7.35-3.44,11.44h-30.68c-.17,0-.32-.15-.32-.32Zm11.09,19.7c-.98,0-1.8-.82-1.8-1.8v-11.99h21.64c.35,5,1.86,9.69,4.26,13.79h-24.1Zm51.79,10.37c14.59,0,26.46-11.86,26.46-26.45s-11.87-26.46-26.46-26.46-26.45,11.87-26.45,26.46,11.87,26.45,26.45,26.45Zm16.05-39.86c1.09,1.09,1.09,2.86,0,3.95l-22.5,22.5c-1.18,1.18-3.12,1.07-4.16-.23l-9-11.25c-.97-1.2-.77-2.96.44-3.93,1.21-.97,2.96-.77,3.93.44l7.05,8.81,20.29-20.29c1.09-1.09,2.86-1.09,3.95,0Z"/>
      </g>
    </g>
  </g>
</svg>