<?xml version="1.0" encoding="UTF-8"?>
<svg id="Capa_2" data-name="Capa 2" xmlns="http://www.w3.org/2000/svg" xmlns:xlink="http://www.w3.org/1999/xlink" viewBox="0 0 90.75 89.25">
  <defs>
    <style>
      .cls-1, .cls-2 {
        fill: #333;
      }

      .cls-2 {
        clip-path: url(#clippath);
      }
    </style>
    <clipPath id="clippath">
      <rect class="cls-1" width="90.75" height="89.25"/>
    </clipPath>
  </defs>
  <g id="Capa_1-2" data-name="Capa 1">
    <g class="cls-2">
      <path d="m60.73,51.62l6.94-6.99c.57-.57,1.5-.57,2.07,0,.57.57.57,1.51,0,2.08l-6.94,6.99c-.29.29-.66.43-1.03.43s-.75-.14-1.03-.43c-.57-.57-.57-1.51,0-2.08Zm-15.35-8.86c.81,0,1.46.66,1.46,1.47v9.88c0,.81-.65,1.47-1.46,1.47s-1.46-.66-1.46-1.47v-9.88c0-.81.65-1.47,1.46-1.47Zm-15.35,8.86c.57.57.57,1.51,0,2.08-.29.29-.66.43-1.03.43s-.75-.14-1.03-.43l-6.94-6.99c-.57-.57-.57-1.51,0-2.08.57-.57,1.5-.57,2.07,0l6.94,6.99ZM11.04,26.8c.71-.03,1.33-.49,1.59-1.16l.5-1.33.5,1.33c.25.67.87,1.12,1.58,1.16l1.41.07-1.1.89c-.55.45-.79,1.18-.61,1.87l.37,1.37-1.18-.78c-.3-.2-.64-.29-.98-.29s-.68.1-.98.29l-1.18.78.37-1.37c.19-.69-.05-1.43-.61-1.87l-1.1-.89,1.41-.07Zm-3.68,6.34c-.2.73.07,1.48.67,1.93.61.44,1.4.46,2.03.05l3.06-2.02,3.06,2.02c.3.2.64.3.98.3.37,0,.74-.12,1.05-.35.61-.44.87-1.2.67-1.93l-.96-3.55,2.85-2.31c.58-.47.81-1.24.58-1.96-.23-.72-.87-1.2-1.61-1.24l-3.66-.18-1.3-3.44c-.27-.7-.92-1.16-1.67-1.16s-1.41.46-1.67,1.16l-1.3,3.44-3.66.18c-.75.04-1.38.52-1.61,1.24-.23.72,0,1.49.58,1.96l2.85,2.31-.96,3.55Zm5.77-15.3c5.6,0,10.16,4.59,10.16,10.22s-4.56,10.22-10.16,10.22-10.16-4.59-10.16-10.22,4.56-10.22,10.16-10.22Zm0,23.39c7.22,0,13.09-5.91,13.09-13.17s-5.87-13.17-13.09-13.17S.03,20.8.03,28.06s5.87,13.17,13.09,13.17Zm69.67-10.61c.13,1.11-.16,2.12-.86,2.94-.66.77-1.67,1.32-2.83,1.57v.33c0,.81-.65,1.47-1.46,1.47s-1.46-.66-1.46-1.47v-.36c-1.84-.46-3.24-1.76-3.69-3.54-.2-.79.28-1.59,1.07-1.78.78-.2,1.58.28,1.77,1.07.28,1.13,1.48,1.51,2.43,1.49.82-.02,1.63-.31,1.97-.7.11-.13.22-.3.17-.66-.04-.33-.13-1.12-2.48-1.51-3.84-.63-4.52-2.83-4.58-4.09-.1-2.04,1.23-3.75,3.34-4.34v-.39c0-.81.65-1.47,1.46-1.47s1.46.66,1.46,1.47v.37c1.36.36,2.63,1.27,3.31,2.91.31.75-.04,1.61-.78,1.93-.74.31-1.6-.04-1.91-.79-.55-1.32-1.91-1.39-2.63-1.23-.32.07-1.37.39-1.32,1.39.01.27.05.98,2.13,1.33,3,.49,4.65,1.86,4.91,4.05Zm-5.16,7.66c-5.6,0-10.16-4.59-10.16-10.22s4.56-10.22,10.16-10.22,10.16,4.59,10.16,10.22c0,5.64-4.56,10.22-10.16,10.22Zm0-23.39c-7.22,0-13.09,5.91-13.09,13.17s5.87,13.17,13.09,13.17,13.09-5.91,13.09-13.17c0-7.26-5.87-13.17-13.09-13.17Zm-34.99,5.23l-2.39-2.4c-.57-.57-.57-1.51,0-2.08.57-.57,1.5-.57,2.07,0l1.4,1.41,4.77-4.35c.6-.55,1.52-.5,2.07.1.54.6.5,1.53-.1,2.08l-5.8,5.29c-.28.26-.63.38-.98.38-.38,0-.75-.14-1.03-.43Zm2.74-10.97c3.99,0,7.24,3.27,7.24,7.29s-3.25,7.29-7.24,7.29-7.24-3.27-7.24-7.29,3.25-7.29,7.24-7.29Zm0,17.51c5.61,0,10.17-4.59,10.17-10.23s-4.56-10.23-10.17-10.23-10.17,4.59-10.17,10.23,4.56,10.23,10.17,10.23Zm-12.76-13.14c.24-.23.46-.43.66-.62,1.96-1.83,2.11-2.09,2.7-4.71.06-.26.13-.55.2-.88.17-.73.76-1.23,1.51-1.28.33-.02.63-.03.9-.05,2.67-.13,2.95-.24,5.08-1.86.21-.16.45-.34.72-.55.6-.45,1.37-.45,1.97,0,.27.2.51.38.72.55,2.13,1.62,2.41,1.73,5.08,1.86.27.01.56.03.9.05.75.04,1.34.54,1.51,1.28.08.33.14.62.2.88.59,2.62.75,2.88,2.7,4.71.2.18.41.39.66.62.55.52.68,1.28.34,1.96-.15.3-.29.57-.41.81-1.22,2.39-1.27,2.69-.94,5.36.03.27.07.56.11.9.09.75-.3,1.42-.99,1.72-.31.13-.58.25-.83.35-2.46,1.04-2.69,1.24-4.14,3.5-.15.23-.31.48-.49.76-.41.63-1.14.9-1.86.68-.32-.1-.6-.19-.86-.26-1.28-.4-1.99-.59-2.7-.59s-1.43.2-2.7.59c-.26.08-.54.17-.86.26-.72.22-1.45-.05-1.86-.68-.18-.28-.34-.53-.49-.76-1.45-2.26-1.68-2.45-4.14-3.5-.25-.1-.52-.22-.83-.35-.69-.3-1.08-.97-.99-1.72.04-.33.08-.63.11-.9.33-2.67.28-2.97-.94-5.36-.12-.24-.26-.51-.41-.81-.34-.67-.2-1.44.34-1.96Zm21.89,18.65c-.6-.12-1.21.14-1.54.67l-1.24,2.02-1.05-2.46c1.03-.29,1.95-.95,2.57-1.91.19-.29.35-.54.5-.77.55-.85.85-1.32,1.11-1.55,0,0,.02-.02.03-.02l1.93,4.51-2.31-.48Zm-15.49,4.27l-1.19-2.05c-.31-.53-.91-.82-1.52-.71l-2.32.41,2.44-5.27c.16.23.35.52.58.89.15.23.31.49.5.77.77,1.19,1.99,1.91,3.31,2.06l-1.81,3.9Zm-8.94-18.81c.46.9.71,1.4.77,1.74s0,.9-.13,1.9c-.03.27-.07.57-.11.92-.24,2.05.86,3.96,2.74,4.77.21.09.41.18.6.26l-3.79,8.18c-.23.5-.17,1.08.17,1.52.33.44.88.65,1.41.55l4.08-.72,2.08,3.6c.26.45.75.73,1.26.73.02,0,.04,0,.07,0,.54-.03,1.03-.35,1.26-.85l3.89-8.4c.46-.13.77-.21,1-.21.35,0,.88.16,1.84.46.05.02.11.03.17.05l2.76,6.46c.22.5.69.84,1.23.89.04,0,.07,0,.11,0,.5,0,.97-.26,1.24-.7l2.18-3.54,4.06.84c.53.11,1.08-.09,1.43-.51.34-.43.42-1.01.21-1.51l-3.07-7.17c1.8-.84,2.84-2.72,2.6-4.71-.04-.34-.08-.64-.11-.92-.13-1.01-.19-1.56-.13-1.9s.31-.84.77-1.74c.12-.24.26-.52.42-.82.92-1.84.54-4.02-.95-5.43-.25-.23-.47-.44-.67-.63-.74-.69-1.15-1.07-1.32-1.37-.17-.3-.3-.85-.52-1.84-.06-.27-.13-.56-.21-.9-.47-2.01-2.15-3.43-4.2-3.54-.34-.02-.64-.03-.92-.05-1.01-.05-1.56-.08-1.89-.2-.33-.12-.77-.46-1.57-1.07-.22-.17-.46-.35-.73-.56C46.48,0,44.27,0,42.63,1.23c-.27.21-.51.39-.73.56-.8.61-1.25.95-1.57,1.07-.33.12-.88.15-1.89.2-.27.01-.57.03-.92.05-2.04.11-3.73,1.54-4.2,3.54-.08.33-.15.63-.21.9-.22.99-.35,1.53-.52,1.84-.17.3-.58.68-1.32,1.37-.2.19-.42.39-.67.63-1.49,1.41-1.88,3.59-.95,5.43.15.31.29.58.42.82Zm-19.63,50.45c.1.7-.38,1.36-1.08,1.46-.7.1-1.35-.38-1.45-1.09-.1-.7.38-1.36,1.08-1.46.7-.1,1.35.38,1.45,1.09Zm59.5-2.2l-23.17,14.36c-1.76,1.09-3.69,1.36-5.74.81l-16.81-4.53c-.37-.1-.77-.05-1.11.15l-2.27,1.32-6-10.66,9.24-5.38c2.06-1.2,4.29-2.21,6.58-1.46.77.25,1.66.58,2.7.95,2.97,1.08,6.67,2.43,10.52,3.14,1.15.42,1.8,1.54,1.51,2.64-.31,1.17-1.18,1.68-2.59,1.52-1.86-.39-3.64-.9-5.51-1.44-.9-.26-1.83-.53-2.78-.78-.78-.21-1.58.26-1.79,1.04-.21.79.25,1.59,1.03,1.8.93.25,1.85.52,2.74.77,1.96.56,3.8,1.09,5.8,1.5,0,0,.05,0,.06.01l1.59.26c2.45.39,4.63,0,6.66-1.18l12.77-7.48c3.45-2.02,6.18-2.29,7.12-.7.64,1.07.36,2.8-.54,3.35Zm-49.44,18.33l-3.58,2.04c-.13.07-.25.05-.32.04-.06-.02-.18-.07-.25-.2l-10.53-18.73c-.11-.2-.04-.46.16-.57l3.58-2.04c.07-.04.14-.05.2-.05.05,0,.09,0,.12.02.06.02.18.07.25.2h0s10.53,18.73,10.53,18.73c.11.2.04.46-.16.57Zm41.38-23.52l-12.77,7.48c-.38.22-.76.4-1.16.55.1-.24.18-.49.26-.75.7-2.62-.85-5.36-3.51-6.23-.06-.02-.13-.04-.19-.05-3.64-.66-7.25-1.97-10.15-3.03-1.01-.37-1.97-.72-2.79-.98-3.39-1.11-6.43.25-8.95,1.72l-9.21,5.37-.73-1.3c-.44-.78-1.15-1.34-2.02-1.58-.86-.24-1.76-.13-2.54.31l-3.58,2.04c-1.6.91-2.17,2.97-1.26,4.58l10.53,18.73c.44.78,1.16,1.34,2.02,1.58.3.08.6.12.9.12.57,0,1.13-.15,1.64-.44l3.58-2.04c1.6-.91,2.17-2.97,1.26-4.58l-.93-1.64,1.76-1.03,16.22,4.37c.93.25,1.86.38,2.77.38,1.84,0,3.63-.51,5.26-1.52l23.18-14.36c2.26-1.4,2.98-4.91,1.52-7.37-.71-1.19-3.6-4.73-11.1-.33Z"/>
    </g>
  </g>
</svg>
