<?xml version="1.0" encoding="UTF-8"?>
<svg id="Capa_2" data-name="Capa 2" xmlns="http://www.w3.org/2000/svg" xmlns:xlink="http://www.w3.org/1999/xlink" viewBox="0 0 84 84.75">
  <defs>
    <style>
      .cls-1, .cls-2 {
        fill: #333;
      }

      .cls-2 {
        clip-path: url(#clippath);
      }

      .cls-3 {
        fill-rule: evenodd;
      }
    </style>
    <clipPath id="clippath">
      <rect class="cls-1" width="84" height="84.75"/>
    </clipPath>
  </defs>
  <g id="Capa_1-2" data-name="Capa 1">
    <g class="cls-2">
      <path class="cls-3" d="m80.87,54.75l-1.34-1.38c2.61-1.22,4.42-3.87,4.42-6.94,0-4.22-3.42-7.65-7.63-7.65-2.99,0-5.58,1.73-6.83,4.24l-5.42-5.58h11.07c.71,0,1.28-.58,1.28-1.28V7.64c0-.71-.57-1.28-1.28-1.28h-9.29v-1.38c0-2.73-2.21-4.94-4.93-4.94s-4.93,2.22-4.93,4.94v1.38h-9.29c-.71,0-1.28.57-1.28,1.28v9.31h-1.38c-2.72,0-4.93,2.22-4.93,4.94s2.21,4.94,4.93,4.94h1.38v9.31c0,.71.57,1.28,1.28,1.28h5.53c.64,1.15,1.61,2.57,2.94,4.35l-5.9,7.28c-.27-3.97-3.58-7.12-7.61-7.12s-7.09,2.92-7.56,6.68l-5.34-6.58c1.43-1.91,2.47-3.41,3.13-4.61h5.53c.71,0,1.28-.58,1.28-1.28v-10.6c0-.71-.57-1.28-1.28-1.28h-2.66c-1.31,0-2.37-1.07-2.37-2.38s1.06-2.38,2.37-2.38h2.66c.71,0,1.28-.57,1.28-1.28V7.64c0-.71-.57-1.28-1.28-1.28h-10.57c-.71,0-1.28.57-1.28,1.28v2.66c0,1.31-1.06,2.38-2.37,2.38s-2.37-1.07-2.37-2.38v-2.66c0-.71-.57-1.28-1.28-1.28h-10.57c-.71,0-1.28.57-1.28,1.28v28.52c0,.71.57,1.28,1.28,1.28h11.07l-5.55,5.72c-1.22-2.59-3.85-4.38-6.89-4.38C3.42,38.78,0,42.21,0,46.43,0,49.55,1.88,52.24,4.56,53.43l-1.28,1.32c-1.54,1.58-3.13,3.22-3.13,5.82v20.57c0,1.97,1.6,3.57,3.56,3.57h13.41c1.96,0,3.56-1.6,3.56-3.57v-23.52c.09-.76,1.27-4.58,2.27-7.15,2.03,3.13,4,6.04,5.04,7.58.38.56.66.97.77,1.14.88,1.35,2.76,6.7,2.91,7.64v14.66c0,1.78,1.53,3.22,3.4,3.22h13.63c1.88,0,3.4-1.44,3.4-3.22v-14.66c.15-.94,2.03-6.29,2.91-7.64.1-.16.33-.49.65-.97,1.11-1.65,3.22-4.79,5.36-8.15,1.03,2.56,2.33,6.75,2.42,7.55v23.52c0,1.97,1.6,3.57,3.56,3.57h13.41c1.96,0,3.56-1.6,3.56-3.57v-20.57c0-2.61-1.59-4.24-3.13-5.82Zm-4.54-13.4c-2.79,0-5.07,2.28-5.07,5.08s2.27,5.08,5.07,5.08,5.07-2.28,5.07-5.08-2.27-5.08-5.07-5.08Zm-28.34-6.47h3.33c-.02-.46.07-.85.27-1.19.73-1.41,2.22-2.47,3.83-2.72,1.34-.21,2.55.17,3.42,1.06l2.76,2.85h12.28V8.93h-9.29c-.71,0-1.28-.58-1.28-1.28v-2.66c0-1.31-1.06-2.38-2.37-2.38s-2.37,1.07-2.37,2.38v2.66c0,.71-.57,1.28-1.28,1.28h-9.29v9.31c0,.71-.57,1.28-1.28,1.28h-2.66c-1.31,0-2.37,1.07-2.37,2.38s1.06,2.38,2.37,2.38h2.66c.71,0,1.28.58,1.28,1.28v9.31Zm-6.31,9.64c2.79,0,5.07,2.28,5.07,5.08,0,1.26-.46,2.42-1.23,3.31-1.32,1-2.53,1.48-3.66,1.48h0c-1.4,0-2.88-.71-4.52-2.19-.45-.76-.72-1.65-.72-2.6,0-2.8,2.27-5.08,5.07-5.08Zm-31.4-9.64h12.28l2.76-2.85c.86-.89,2.08-1.27,3.41-1.06,1.61.25,3.1,1.31,3.83,2.72.21.34.3.73.27,1.19h3.33v-8.03h-1.38c-2.72,0-4.93-2.22-4.93-4.94s2.21-4.94,4.93-4.94h1.38v-8.03h-8.01v1.38c0,2.73-2.21,4.94-4.93,4.94s-4.93-2.22-4.93-4.94v-1.38h-8.01v25.95Zm-7.72,11.55c0,2.8,2.27,5.08,5.07,5.08s5.07-2.28,5.07-5.08-2.27-5.08-5.07-5.08-5.07,2.28-5.07,5.08Zm15.57,11.16v23.55c0,.55-.45,1.01-1,1.01H3.72c-.55,0-1-.45-1-1.01v-20.57c0-1.49.91-2.5,2.4-4.03l2.39-2.47s.08,0,.12,0c4.35,0,7.83-3.68,7.62-7.97l11.92-12.28c.35-.36.84-.37,1.19-.31.78.12,1.56.66,1.92,1.32-.05.27-.35,1.21-2.06,3.67-1.29,1.85-2.91,3.9-4.21,5.55-1.28,1.61-2.01,2.55-2.33,3.09-1.11,1.88-3.53,9.27-3.53,10.46Zm35.42-.8c1.23-1.83,3.7-5.51,6.07-9.27l-2.84-3.63-5.49,6.79c-1.43,1.77-2.76,3.14-4.04,4.14-1.39,1.49-3.37,2.43-5.57,2.43-2.64,0-4.97-1.35-6.34-3.41-.82-.77-1.67-1.69-2.54-2.76l-5.63-6.94-2.88,3.68c2.29,3.57,4.65,7.06,5.82,8.79.4.6.67.99.79,1.18,1.08,1.66,3.33,7.94,3.33,9v14.71c0,.35.39.65.85.65h13.63c.45,0,.85-.31.85-.65v-14.71c0-1.06,2.25-7.34,3.33-9,.11-.16.34-.51.67-1Zm27.89,24.35c0,.55-.45,1.01-1,1.01h-13.41c-.55,0-1-.45-1-1.01v-23.55c0-1.19-2.42-8.58-3.53-10.46-.32-.54-1.06-1.48-2.33-3.09-1.3-1.65-2.92-3.7-4.21-5.54-1.71-2.46-2.01-3.4-2.06-3.67.36-.66,1.14-1.2,1.92-1.32.35-.06.84-.05,1.19.31l11.72,12.09c-.31,4.59,3.48,8.39,7.92,8.16l2.4,2.47c1.49,1.53,2.4,2.55,2.4,4.03v20.57Z"/>
    </g>
  </g>
</svg>