<?xml version="1.0" encoding="UTF-8"?>
<svg id="Capa_2" data-name="Capa 2" xmlns="http://www.w3.org/2000/svg" xmlns:xlink="http://www.w3.org/1999/xlink" viewBox="0 0 63.75 76.5">
  <defs>
    <style>
      .cls-1, .cls-2 {
        fill: #333;
      }

      .cls-2 {
        clip-path: url(#clippath);
      }
    </style>
    <clipPath id="clippath">
      <rect class="cls-1" width="63.75" height="76.5"/>
    </clipPath>
  </defs>
  <g id="Capa_1-2" data-name="Capa 1">
    <g class="cls-2">
      <path d="m19.03,37.65c-.55,0-1,.45-1,1,0,1.34-1.09,2.43-2.43,2.43s-2.43-1.09-2.43-2.43c0-.55-.45-1-1-1s-1,.45-1,1c0,1.19.46,2.3,1.3,3.14s1.95,1.3,3.13,1.3,2.3-.46,3.13-1.3c.84-.84,1.3-1.95,1.3-3.14,0-.55-.45-1-1-1Z"/>
      <path d="m28.33,8.19c0-.76.61-1.37,1.37-1.37s1.37.62,1.37,1.37c0,.43.35.78.78.78s.78-.35.78-.78c0-1.62-1.31-2.93-2.92-2.93s-2.92,1.31-2.92,2.93c0,.43.35.78.78.78s.78-.35.78-.78Z"/>
      <path d="m34.29,8.97c.43,0,.78-.35.78-.78,0-.76.61-1.37,1.37-1.37s1.37.62,1.37,1.37c0,.43.35.78.78.78s.78-.35.78-.78c0-1.62-1.31-2.93-2.92-2.93s-2.92,1.31-2.92,2.93c0,.43.35.78.78.78Z"/>
      <path d="m29.76,11.95c-.15-.2-.38-.31-.62-.31-.17,0-.33.05-.46.15-.34.26-.41.75-.16,1.09.87,1.17,2.56,1.9,4.42,1.9.96,0,1.89-.19,2.7-.56.82-.38,1.47-.92,1.88-1.56.23-.36.12-.85-.25-1.07-.12-.08-.27-.12-.41-.12-.27,0-.52.14-.66.37-.24.38-.66.72-1.2.97-.6.28-1.31.42-2.05.42-1.35,0-2.6-.5-3.17-1.27Z"/>
      <path d="m57.16,24.94c-.8-.37-1.74-.56-2.7-.56-1.86,0-3.55.73-4.42,1.9-.26.34-.19.83.16,1.09.14.1.3.15.46.15.24,0,.48-.12.62-.31.57-.77,1.82-1.27,3.17-1.27.74,0,1.45.15,2.05.42.54.25.97.59,1.2.97.14.23.39.37.66.37.15,0,.29-.04.41-.12.18-.11.3-.28.35-.49.05-.2.01-.41-.1-.59-.4-.64-1.05-1.18-1.88-1.56Z"/>
      <path d="m61.74,24.4c-.34,1.93-1.42,3.61-3.02,4.73-1.61,1.12-3.55,1.55-5.48,1.2-1.93-.34-3.61-1.42-4.73-3.03-1.12-1.61-1.55-3.56-1.2-5.49.34-1.93,1.42-3.61,3.02-4.73,1.24-.87,2.69-1.32,4.18-1.32.43,0,.87.04,1.3.12,1.93.34,3.61,1.42,4.73,3.03,1.12,1.61,1.55,3.56,1.2,5.49Zm-9.8,20.44c-.72,2.17-1.77,4.22-3.12,6.07-1.39,1.91-2.46,3.99-3.19,6.19-.73,2.22-1.11,4.52-1.11,6.84v10.55h-25.33l-.17-7.41c-.01-.55-.46-.98-1-.98h-8.34l.06-5.14c.2.14.42.27.64.39.82.44,1.75.68,2.68.71.06,0,.13,0,.19,0,.87,0,1.74-.19,2.53-.55.9-.41,1.67-1.02,2.28-1.82.34-.44.26-1.07-.18-1.41-.44-.34-1.07-.26-1.41.18-.81,1.05-2.03,1.62-3.36,1.58-1.32-.04-2.51-.69-3.25-1.79l-.1-.14.08-6.47c0-.27-.1-.53-.29-.72-.19-.19-.45-.3-.71-.3H2.71l6.96-13.49c.13-.16.21-.36.22-.57.08-1.4.29-2.78.62-4.13.23.02.47.03.7.03,1.23,0,2.43-.24,3.56-.72,1.09-.46,2.06-1.12,2.9-1.96.84-.84,1.5-1.82,1.96-2.91.48-1.13.72-2.33.72-3.56s-.24-2.43-.72-3.56c-.03-.08-.06-.15-.1-.22,2.22-1.5,4.67-2.56,7.27-3.14.15-.03.29-.1.41-.2.69.58,1.46,1.05,2.29,1.4.9.38,1.84.61,2.82.69v.53h1.54v-.54c.95-.08,1.87-.31,2.75-.69.49-.21.95-.45,1.39-.74,1.33.41,2.63.96,3.85,1.63,1.28.7,2.5,1.54,3.61,2.49.04.04.09.07.14.1-.03.14-.06.28-.09.43-.22,1.22-.19,2.44.08,3.63.16.72.41,1.42.74,2.08l-.92.35.55,1.45,1.19-.46c.65.88,1.45,1.63,2.36,2.23.85.56,1.78.96,2.77,1.21,0,.08.01.15.03.23.47,1.82.71,3.71.71,5.62,0,2.4-.38,4.75-1.12,7ZM6.03,28.5c-1.38-1.39-2.15-3.23-2.15-5.19s.76-3.81,2.15-5.19c1.38-1.39,3.23-2.15,5.18-2.15s3.8.76,5.18,2.15c1.38,1.39,2.15,3.23,2.15,5.19s-.76,3.81-2.15,5.19-3.23,2.15-5.18,2.15-3.8-.76-5.18-2.15ZM27.88,3.96c1.38-1.39,3.23-2.15,5.18-2.15s3.8.76,5.18,2.15c1.38,1.39,2.15,3.23,2.15,5.19s-.76,3.81-2.15,5.19c-.21.21-.44.41-.68.6-.07.04-.14.09-.2.15-1.24.91-2.74,1.4-4.31,1.4-1.96,0-3.8-.76-5.18-2.15-1.38-1.39-2.15-3.23-2.15-5.19,0-1.96.76-3.81,2.15-5.19Zm35.55,17.12c-.26-1.15-.74-2.23-1.42-3.21-.68-.97-1.52-1.8-2.51-2.44-1.03-.67-2.16-1.12-3.37-1.33-1.21-.22-2.43-.19-3.63.08-1.15.26-2.23.74-3.2,1.42-.97.68-1.79,1.53-2.44,2.52-.2.31-.38.62-.54.95-1.09-.89-2.26-1.68-3.5-2.35-.97-.53-1.99-.99-3.02-1.38.71-.77,1.27-1.65,1.68-2.62.48-1.13.72-2.33.72-3.56s-.24-2.43-.72-3.56c-.46-1.09-1.12-2.07-1.96-2.91-.84-.84-1.82-1.5-2.9-1.96-1.13-.48-2.32-.72-3.56-.72s-2.43.24-3.56.72c-1.09.46-2.06,1.12-2.9,1.96-.84.84-1.5,1.82-1.96,2.91-.48,1.13-.72,2.33-.72,3.56s.24,2.43.72,3.56c.28.66.64,1.29,1.06,1.86-2.56.65-4.98,1.73-7.2,3.21-.25-.34-.53-.66-.83-.96-.84-.84-1.82-1.5-2.9-1.96-1.13-.48-2.32-.72-3.56-.72s-2.43.24-3.56.72c-1.09.46-2.06,1.12-2.9,1.96s-1.5,1.82-1.96,2.91c-.48,1.13-.72,2.33-.72,3.56s.24,2.43.72,3.56c.46,1.09,1.12,2.07,1.96,2.91s1.82,1.5,2.9,1.96c.29.12.58.23.88.32-.33,1.35-.54,2.73-.64,4.13L.18,51.17c-.16.31-.15.68.03.98.18.3.51.48.86.48h6.77l-.06,5.26c-.11.25-.12.53,0,.79l-.1,8.4c0,.27.1.53.29.72.19.19.45.3.71.3h8.37l.17,7.41c.01.55.46.98,1,.98h27.32c.55,0,1-.45,1-1v-11.56c0-2.1.34-4.19,1.01-6.2.66-2.01,1.64-3.91,2.91-5.64,1.47-2.02,2.62-4.25,3.4-6.62.81-2.45,1.22-5.02,1.22-7.63,0-1.89-.22-3.76-.64-5.58.04,0,.08,0,.11,0,.67,0,1.35-.08,2.01-.23,1.15-.26,2.23-.74,3.2-1.42.97-.68,1.79-1.53,2.44-2.52.67-1.03,1.12-2.17,1.33-3.38.22-1.22.19-2.44-.08-3.63Z"/>
      <path d="m52.11,23.15c.5,0,.9-.4.9-.9v-1.96c0-.5-.4-.9-.9-.9s-.9.4-.9.9v1.96c0,.5.4.9.9.9Z"/>
      <path d="m56.94,23.15c.5,0,.9-.4.9-.9v-1.96c0-.5-.4-.9-.9-.9s-.9.4-.9.9v1.96c0,.5.4.9.9.9Z"/>
      <path d="m8.81,23.39c.5,0,.9-.4.9-.9v-1.96c0-.5-.4-.9-.9-.9s-.9.4-.9.9v1.96c0,.5.4.9.9.9Z"/>
      <path d="m13.63,23.39c.5,0,.9-.4.9-.9v-1.96c0-.5-.4-.9-.9-.9s-.9.4-.9.9v1.96c0,.5.4.9.9.9Z"/>
      <path d="m15.14,26.56c0-.5-.4-.9-.9-.9h-6.04c-.5,0-.9.4-.9.9s.4.9.9.9h6.04c.5,0,.9-.4.9-.9Z"/>
      <path d="m41.2,34.39l-1.6.57c-.24.09-.43.27-.53.51l-.66,1.6c-.1.24-.09.5.02.73l.73,1.53-.65.65-1.53-.73c-.23-.11-.5-.12-.73-.02l-1.6.66c-.24.1-.42.29-.51.53l-.57,1.6h-.92l-.57-1.6c-.09-.24-.27-.43-.51-.53l-1.6-.66c-.24-.1-.5-.09-.73.02l-1.53.73-.65-.65.73-1.53c.11-.23.12-.5.02-.73l-.66-1.6c-.1-.24-.29-.42-.53-.51l-1.6-.57v-.93l1.6-.57c.24-.09.43-.27.53-.51l.66-1.6c.1-.24.09-.5-.02-.73l-.73-1.53.65-.65,1.53.73c.23.11.5.12.73.02l1.6-.66c.24-.1.42-.29.51-.53l.57-1.6h.92l.57,1.6c.09.24.27.43.51.53l1.6.66c.24.1.5.09.73-.02l1.53-.73.65.65-.73,1.53c-.11.23-.12.5-.02.73l.66,1.6c.1.24.29.42.53.51l1.6.57v.93Zm1.21-2.42l-1.82-.65-.09-.22.9-.35-.55-1.45-.09.03.3-.63c.16-.35.09-.76-.18-1.03l-1.55-1.56c-.27-.27-.68-.34-1.03-.18l-1.74.83-.86-.36-.65-1.82c-.13-.36-.47-.6-.85-.6h-.33v-.28h-1.54v.28h-.32c-.38,0-.72.24-.85.6l-.65,1.82-.86.36-1.74-.83c-.34-.16-.76-.09-1.03.18l-1.55,1.56c-.27.27-.34.68-.18,1.03l.06.14-1.14-.53-.65,1.41,1.28.59.6-1.29.39.83-.35.76.48.22-.2.49-1.82.65c-.36.13-.6.47-.6.85v2.2c0,.38.24.72.6.85l1.82.65.36.86-.83,1.75c-.16.35-.09.76.18,1.03l1.55,1.56c.27.27.68.34,1.03.18l1.74-.83.86.36.65,1.82c.13.36.47.6.85.6h2.2c.38,0,.72-.24.85-.6l.65-1.82.86-.36,1.74.83c.35.16.76.09,1.03-.18l1.55-1.56c.27-.27.34-.68.18-1.03l-.83-1.75.36-.86,1.82-.65c.36-.13.6-.47.6-.85v-2.2c0-.38-.24-.72-.6-.85Z"/>
      <path d="m33.1,36.6c-1.47,0-2.66-1.2-2.66-2.67s1.2-2.67,2.66-2.67,2.67,1.2,2.67,2.67-1.2,2.67-2.67,2.67Zm0-7.15c-1.19,0-2.32.47-3.16,1.31s-1.31,1.97-1.31,3.17.46,2.32,1.31,3.17c.84.85,1.97,1.31,3.16,1.31s2.32-.47,3.16-1.31,1.31-1.97,1.31-3.17-.46-2.32-1.31-3.17c-.84-.85-1.97-1.31-3.16-1.31Z"/>
      <polygon points="21.51 28.85 22.16 27.45 23.43 28.04 22.79 29.44 21.51 28.85"/>
      <polygon points="19.6 27.97 20.25 26.57 21.52 27.15 20.88 28.56 19.6 27.97"/>
      <rect x="32.33" y="19.51" width="1.54" height="1.41"/>
      <rect x="32.33" y="21.62" width="1.54" height="1.41"/>
      <polygon points="43.47 28.32 44.78 27.81 45.33 29.26 44.02 29.76 43.47 28.32"/>
      <polygon points="41.5 29.07 42.82 28.56 43.37 30.01 42.06 30.51 41.5 29.07"/>
    </g>
  </g>
</svg>