<?xml version="1.0" encoding="UTF-8"?>
<svg id="Capa_2" data-name="Capa 2" xmlns="http://www.w3.org/2000/svg" xmlns:xlink="http://www.w3.org/1999/xlink" viewBox="0 0 86.25 83.25">
  <defs>
    <style>
      .cls-1, .cls-2 {
        fill: #333;
      }

      .cls-2 {
        clip-path: url(#clippath);
      }
    </style>
    <clipPath id="clippath">
      <rect class="cls-1" width="86.25" height="83.25"/>
    </clipPath>
  </defs>
  <g id="Capa_1-2" data-name="Capa 1">
    <g class="cls-2">
      <path d="m9.31,35.96c1.75-8.06,5.98-14.86,12.24-19.67.42-.32.54-.91.28-1.37l-1.62-2.81,7.1,1.93-1.94,7.05-1.35-2.35c-.16-.27-.42-.46-.73-.52-.31-.06-.63.02-.87.22-5.56,4.46-9.34,10.68-10.92,18l-.23,1.08-2.18-.46.24-1.08Zm-1.73,2.94l4.27.91c.08.02.15.02.23.02.49,0,.94-.34,1.05-.84l.46-2.12c1.39-6.4,4.56-11.9,9.21-15.98l2,3.47c.21.37.64.58,1.06.53.43-.05.79-.36.9-.78l2.91-10.55c.08-.27.04-.56-.1-.81-.14-.24-.37-.43-.65-.5l-10.63-2.89c-.42-.11-.86.03-1.13.37-.27.34-.3.81-.08,1.18l2.44,4.25c-6.27,5.08-10.51,12.09-12.29,20.33l-.46,2.12c-.12.58.24,1.14.82,1.26Zm48.6,36.03c-7.69,3.11-15.74,3.46-23.27,1.04-.51-.16-1.06.07-1.3.54l-1.43,2.91-2.39-6.91,6.96-2.37-1.2,2.43c-.14.28-.14.61-.02.89.13.29.37.5.67.59,6.84,2.05,14.15,1.65,21.13-1.17l1.03-.42.84,2.05-1.03.42Zm1.77-4.25c-.22-.54-.85-.81-1.4-.59l-2.02.82c-6.11,2.47-12.48,2.96-18.49,1.44l1.77-3.59c.19-.39.13-.85-.16-1.17-.29-.32-.74-.44-1.15-.3l-10.42,3.55c-.27.09-.49.29-.61.54-.13.25-.14.55-.05.81l3.58,10.34c.14.41.51.69.95.72.02,0,.04,0,.07,0,.41,0,.78-.23.96-.6l2.16-4.39c7.76,2.28,15.98,1.81,23.85-1.36l2.02-.82c.55-.22.81-.84.59-1.39l-1.64-4.01Zm5.12-55.59l.89.67c6.63,4.97,11.05,11.65,12.8,19.32.12.52.6.87,1.13.82l3.25-.27-4.76,5.57-5.62-4.72,2.72-.22c.31-.03.6-.19.78-.44.18-.25.24-.57.17-.88-1.72-6.89-5.81-12.91-11.82-17.43l-.89-.67,1.34-1.76Zm-3.49,2.82l1.74,1.31c5.26,3.95,8.94,9.13,10.7,15.03l-4.02.33c-.43.04-.8.33-.93.74-.13.41,0,.86.33,1.14l8.41,7.07c.19.16.44.25.69.25.03,0,.06,0,.09,0,.28-.02.54-.16.73-.37l7.12-8.35c.28-.33.33-.79.14-1.17-.2-.38-.61-.61-1.04-.57l-4.91.4c-1.99-7.78-6.61-14.56-13.38-19.65l-1.74-1.31c-.47-.35-1.14-.26-1.5.21l-2.64,3.46c-.36.47-.26,1.13.21,1.49Zm7.35,27.29c-.01.06-.04.13-.14.19l-3.34,2.04c-.2.12-.52.06-.66-.13l-7.93-11.1c-.07-.09-.07-.18-.06-.24.01-.05.04-.13.14-.19l3.34-2.04c.07-.04.16-.06.24-.06.16,0,.32.07.41.2l7.93,11.1c.07.09.07.18.06.23Zm-6.75,2.66c-.3.42-1.02.85-1.78.91l-5.59-3.29-7.04-4.23c-.39-.23-.88-.2-1.23.09-.62.5-1.16.6-1.81.33-.39-.16-.85-.08-1.16.21-.24.23-.45.44-.66.65-.89.9-1.38,1.4-2.56,1.41h-.01c-.2,0-.46-.06-.62-.32-.11-.18-.1-.35.02-.52.58-.84,1.2-1.5,1.82-1.97,0,0,.01,0,.02-.01,2.02-1.57,5.29-2.97,7.37-2.47l3.4.81c.57.14,1.13.12,1.7-.04.41-.12.91-.28,1.4-.43.21-.07.42-.13.62-.2l6.24,8.73c0,.1-.04.21-.13.35Zm-2.42,3.31c-.18.27-.78.51-1.26.25-.98-.54-1.98-1.07-2.95-1.59-.49-.26-.97-.52-1.46-.78-.52-.28-1.17-.09-1.45.43-.28.52-.09,1.16.43,1.44.49.26.98.52,1.47.78.85.45,1.72.91,2.57,1.38.52.38.37.64.31.75-.26.46-1.15.86-2.16.46l-3.53-2.14c-.51-.31-1.17-.15-1.47.35-.31.5-.15,1.16.36,1.46l3.56,2.16c.21.15.35.35.11.73-.32.52-1.24,1.01-2.27.5l-2.23-1.4c-.5-.32-1.16-.17-1.48.33-.32.5-.17,1.15.33,1.47l2.24,1.41c.34.25.27.34.24.39-.3.44-1.49.84-2.52.18l-.09-.06c-.72-.47-1.28-.82-1.71-1.08l1.22-2.12c.4-.7.49-1.51.26-2.28-.24-.79-.82-1.45-1.58-1.83-.41-.2-.87-.3-1.33-.31.04-.39,0-.78-.11-1.16-.24-.79-.8-1.44-1.55-1.81-.79-.39-1.68-.42-2.48-.15-.29-.59-.78-1.08-1.39-1.38-.91-.45-1.95-.44-2.82-.05-.29-.51-.73-.92-1.28-1.19-1.52-.75-3.45-.17-4.29,1.29l-1.07,1.85c-.68-.7-1.24-1.38-1.68-2.05l4.97-8.1,3.04.98c.13.04.26.06.4.05.71-.04,1.4-.03,2.08.05-.41.43-.81.92-1.18,1.46-.6.86-.64,1.92-.1,2.81.51.85,1.43,1.36,2.46,1.36h.03c2.08-.02,3.09-1.05,4.07-2.05.05-.05.11-.11.16-.16.75.17,1.67.14,2.65-.42l6.46,3.88,5.8,3.42c.36.29.28.42.25.46Zm-17.06,8.16c-.36-.18-.82-.4-.15-1.83l1.64-2.85c.18-.3,1.06-.6,1.56-.36.24.12.41.31.48.54.04.14.07.37-.07.6l-2.03,3.52c-.26.45-.92.63-1.43.37Zm-4.35-.95c-.23-.11-.39-.3-.46-.52-.07-.23-.04-.48.09-.69l3.16-5.49.13-.22c.2-.35.6-.56,1-.56.16,0,.33.04.48.11.23.11.39.3.46.52.07.23.04.48-.09.69l-.79,1.37-2.5,4.35c-.29.49-.96.7-1.47.45Zm-3.88-1.53c-.43-.21-.63-.67-.45-1.07l.02-.05c.16-.38.21-.48.23-.51,0,.02-.02.03-.02.04h0s.03-.05.04-.07l2.7-4.68s.02-.03.03-.05h0c.05-.08.41-.62.46-.69.29-.4.91-.54,1.38-.3.24.12.41.31.48.54.04.14.07.37-.07.6l-3.16,5.49c-.07.12-.13.25-.18.38l-.03-.02c-.26.46-.92.63-1.43.38Zm-3.52-2.27c-.23-.11-.39-.3-.46-.53-.07-.23-.04-.48.09-.69l.94-1.63s0,0,0,0l1.76-3.05c.2-.35.6-.56,1-.56.16,0,.33.04.48.11.23.11.39.3.46.52.07.23.04.47-.09.69l-2.7,4.68c-.28.49-.96.7-1.47.45Zm-5.99-6.07l-3.49-1.83c-.1-.05-.14-.13-.16-.19-.02-.06-.02-.15.04-.25l7.08-11.55c.09-.14.26-.23.44-.23.07,0,.15.02.21.05l3.49,1.83c.1.06.14.13.16.19.02.06.02.15-.04.25l-7.08,11.55c-.13.2-.43.29-.65.18Zm46.06-2.89c.14-.66,0-1.33-.41-1.89l-7.93-11.1c-.79-1.1-2.37-1.42-3.53-.71l-3.34,2.04c-.59.36-.98.92-1.12,1.58-.1.47-.05.95.13,1.38-.01,0-.02,0-.03.01-.47.15-.96.3-1.35.41-.21.06-.38.06-.59.01l-3.4-.81c-2.77-.66-6.09.82-8.12,2.12-1.37-.38-2.75-.53-4.18-.46l-2.41-.78c.17-.47.19-.98.06-1.47-.18-.65-.61-1.18-1.22-1.5l-3.49-1.83c-1.21-.63-2.77-.21-3.48.95l-7.08,11.55c-.36.59-.46,1.27-.28,1.92.18.65.61,1.18,1.22,1.5l3.49,1.83c.38.2.79.29,1.2.29.9,0,1.79-.45,2.28-1.25l.02-.03c.51.66,1.1,1.32,1.79,1.98l-.53.92c-.42.73-.52,1.57-.28,2.37.24.79.79,1.44,1.55,1.81.45.22.94.33,1.42.33.16,0,.32-.01.48-.04.21.82.77,1.56,1.61,1.98.46.23.96.34,1.45.34.36,0,.72-.06,1.05-.17.29.59.76,1.06,1.37,1.36.45.22.94.33,1.42.33.58,0,1.17-.16,1.67-.44.34.52.84.86,1.25,1.06.46.23.96.34,1.45.34.95,0,1.89-.41,2.5-1.14.36.22.88.54,1.65,1.04l.09.06c.76.49,1.58.7,2.36.7,1.3,0,2.5-.59,3.1-1.46.22-.32.36-.69.4-1.08,1.21-.12,2.26-.8,2.83-1.71.29-.46.43-.95.44-1.42,1.22-.14,2.23-.81,2.73-1.68.24-.42.36-.87.35-1.3.81-.17,1.51-.64,1.92-1.25.31-.46.48-1.09.34-1.74.77-.29,1.45-.76,1.93-1.35.42.25.91.39,1.4.39s.94-.12,1.36-.38l3.34-2.04c.58-.36.98-.92,1.11-1.58Zm-51.88,21.51H2.21v-4.04c0-1.83,1.13-3.43,2.69-3.9,1.29.9,2.88,1.44,4.62,1.44s3.4-.56,4.7-1.51c1.68.36,2.94,2.03,2.94,3.96v4.04h0Zm-7.64-18.74c3.06,0,5.54,2.27,5.54,5.06s-2.49,5.06-5.54,5.06-5.54-2.27-5.54-5.06,2.49-5.06,5.54-5.06Zm6.37,9.08c.83-1.15,1.32-2.53,1.32-4.02,0-3.96-3.45-7.19-7.69-7.19s-7.69,3.22-7.69,7.19c0,1.54.52,2.97,1.41,4.14-1.89,1.03-3.18,3.14-3.18,5.5v5.1c0,.59.48,1.06,1.07,1.06h17.09c.59,0,1.07-.48,1.07-1.06v-5.1c0-2.47-1.4-4.65-3.41-5.62Zm68.16,9.51h-14.95v-4.04c0-1.83,1.13-3.43,2.69-3.9,1.29.9,2.88,1.44,4.62,1.44s3.4-.56,4.7-1.51c1.68.36,2.94,2.03,2.94,3.96v4.04h0Zm-7.64-18.74c3.06,0,5.54,2.27,5.54,5.06s-2.49,5.06-5.54,5.06-5.54-2.27-5.54-5.06,2.49-5.06,5.54-5.06Zm6.37,9.08c.83-1.15,1.32-2.53,1.32-4.02,0-3.96-3.45-7.19-7.69-7.19s-7.69,3.22-7.69,7.19c0,1.54.52,2.97,1.41,4.14-1.89,1.03-3.18,3.14-3.18,5.5v5.1c0,.59.48,1.06,1.07,1.06h17.09c.59,0,1.07-.48,1.07-1.06v-5.1c0-2.47-1.4-4.65-3.41-5.62ZM36.01,16.83c0-1.83,1.13-3.43,2.69-3.9,1.29.9,2.88,1.44,4.62,1.44s3.4-.56,4.7-1.51c1.68.36,2.94,2.03,2.94,3.96v4.04h-14.95v-4.04Zm7.31-14.7c3.06,0,5.54,2.27,5.54,5.06s-2.49,5.06-5.54,5.06-5.54-2.27-5.54-5.06,2.49-5.06,5.54-5.06Zm-8.38,20.87h17.09c.59,0,1.07-.48,1.07-1.06v-5.1c0-2.47-1.4-4.65-3.41-5.62.83-1.15,1.32-2.53,1.32-4.02C51.01,3.22,47.56,0,43.32,0s-7.69,3.22-7.69,7.19c0,1.54.52,2.97,1.41,4.14-1.89,1.03-3.18,3.14-3.18,5.5v5.1c0,.59.48,1.06,1.07,1.06Z"/>
    </g>
  </g>
</svg>