<?xml version="1.0" encoding="UTF-8"?>
<svg id="Capa_2" data-name="Capa 2" xmlns="http://www.w3.org/2000/svg" viewBox="0 0 109.54 95.45">
  <defs>
    <style>
      .cls-1 {
        fill: #42575f;
      }
    </style>
  </defs>
  <g id="Capa_1-2" data-name="Capa 1">
    <g>
      <path class="cls-1" d="m65.77,26.79c-9.65,6.82-18.35,14.9-25.84,24-4.2-3.05-8.67-5.74-13.36-8.04,1.84-2.87,3.57-5.81,5.19-8.82,1.4.17,2.84.26,4.29.26,10.53,0,19.94-4.76,26.21-12.24,1.14,1.64,2.31,3.26,3.51,4.84Z"/>
      <path class="cls-1" d="m28.06,33.24c-1.49,2.72-3.08,5.38-4.76,7.97-5.24-2.34-10.72-4.21-16.42-5.55l6-10.53c4.22,3.89,9.41,6.74,15.18,8.11Z"/>
      <path class="cls-1" d="m89.95,13.26c-7.46,3.19-14.56,7.05-21.23,11.51-1.45-1.9-2.85-3.85-4.2-5.84,3.61-5.42,5.71-11.93,5.71-18.93h12.11l7.61,13.26Z"/>
      <path class="cls-1" d="m100.82,32.19c-4.92,3.66-9.58,7.64-13.93,11.93-5.8-5.02-11.15-10.56-15.96-16.53,6.54-4.34,13.51-8.1,20.82-11.2l9.07,15.8Z"/>
      <path class="cls-1" d="m109.54,47.38l-5.36,9.36c-5.09-3.1-9.95-6.55-14.55-10.31,4.07-3.98,8.41-7.7,12.98-11.12l6.93,12.07Z"/>
      <path class="cls-1" d="m102.4,59.84l-8.66,15.13c-6.6-3.51-13.68-6.25-21.1-8.08,4.28-6.41,9.13-12.4,14.47-17.92,4.82,3.98,9.93,7.61,15.29,10.87Z"/>
      <path class="cls-1" d="m84.38,46.66c-5.74,5.95-10.92,12.43-15.46,19.37-4.56-.93-9.25-1.54-14.02-1.78-3.68-4.12-7.74-7.92-12.11-11.32,7.31-8.85,15.78-16.7,25.19-23.32,4.94,6.17,10.44,11.88,16.4,17.05Z"/>
      <path class="cls-1" d="m66.93,0c0,5.82-1.61,11.25-4.4,15.9-3.23-5.07-6.11-10.38-8.61-15.9h13.01Z"/>
      <path class="cls-1" d="m60.34,19.08c-5.66,7.19-14.43,11.8-24.29,11.8-.89,0-1.77-.04-2.64-.11,4.85-9.64,8.56-19.96,10.94-30.77h5.66c2.92,6.67,6.38,13.04,10.33,19.08Z"/>
      <path class="cls-1" d="m40.68,0c-2.41,10.64-6.14,20.77-11.01,30.22-5.8-1.22-11.01-4.07-15.11-8.05L27.19,0h13.49Z"/>
      <path class="cls-1" d="m67.04,68.98c-1.27,2.05-2.48,4.15-3.64,6.27-1.71-2.61-3.56-5.12-5.53-7.54,3.11.27,6.17.69,9.17,1.27Z"/>
      <path class="cls-1" d="m92.13,77.78l-10.12,17.67h-8.55c-2.07-5.86-4.71-11.45-7.87-16.71,1.61-3.07,3.33-6.06,5.18-8.97,7.53,1.77,14.69,4.48,21.36,8.01Z"/>
      <path class="cls-1" d="m21.47,43.95c-4.15,6.07-8.81,11.77-13.93,17.02L0,47.73l5.2-9.13c5.64,1.27,11.08,3.07,16.27,5.35Z"/>
      <path class="cls-1" d="m26.5,70.46c-2.31,4.13-4.4,8.4-6.26,12.79l-5.08-8.91c3.66-1.54,7.45-2.84,11.34-3.88Z"/>
      <path class="cls-1" d="m37.9,53.32c-3.3,4.21-6.35,8.62-9.12,13.22-5.27,1.22-10.36,2.89-15.24,4.96l-4.16-7.3c5.68-5.74,10.83-12.01,15.38-18.72h0c4.61,2.24,9,4.87,13.13,7.84Z"/>
      <path class="cls-1" d="m50.36,64.12h-.36c-5.6,0-11.09.49-16.41,1.43,2.23-3.48,4.62-6.85,7.17-10.09,3.41,2.65,6.62,5.55,9.6,8.66Z"/>
      <path class="cls-1" d="m61.67,78.55c-2.76,5.43-5.15,11.07-7.15,16.9h-27.33l-4.7-8.25c2.47-6.21,5.41-12.19,8.78-17.88,6.04-1.28,12.31-1.95,18.73-1.95,1.14,0,2.27.02,3.4.07,3.03,3.48,5.8,7.19,8.27,11.11Z"/>
      <path class="cls-1" d="m70.02,95.45h-11.71c1.6-4.54,3.46-8.97,5.54-13.26,2.4,4.22,4.47,8.65,6.17,13.26Z"/>
    </g>
  </g>
</svg>